<mxfile host="app.diagrams.net" modified="2021-08-29T11:51:42.948Z" agent="5.0 (Windows NT 10.0; Win64; x64) AppleWebKit/537.36 (KHTML, like Gecko) Chrome/92.0.4515.159 Safari/537.36" etag="UsKysUKg2nU-EMfWYkfs" version="15.0.3" type="github">
  <diagram id="TArUiUbcgP8ZQ5IDxST-" name="Page-1">
    <mxGraphModel dx="1695" dy="482" grid="1" gridSize="10" guides="1" tooltips="1" connect="1" arrows="1" fold="1" page="1" pageScale="1" pageWidth="827" pageHeight="1169" math="0" shadow="0">
      <root>
        <mxCell id="0" />
        <mxCell id="1" parent="0" />
        <mxCell id="U9Ilypw2iZtFGkeuuyww-1" value="会員" style="shape=table;startSize=30;container=1;collapsible=1;childLayout=tableLayout;fixedRows=1;rowLines=0;fontStyle=1;align=center;resizeLast=1;" vertex="1" parent="1">
          <mxGeometry x="20" y="30" width="180" height="180" as="geometry" />
        </mxCell>
        <mxCell id="U9Ilypw2iZtFGkeuuyww-2" value="" style="shape=partialRectangle;collapsible=0;dropTarget=0;pointerEvents=0;fillColor=none;top=0;left=0;bottom=1;right=0;points=[[0,0.5],[1,0.5]];portConstraint=eastwest;" vertex="1" parent="U9Ilypw2iZtFGkeuuyww-1">
          <mxGeometry y="30" width="180" height="30" as="geometry" />
        </mxCell>
        <mxCell id="U9Ilypw2iZtFGkeuuyww-3" value="PK" style="shape=partialRectangle;connectable=0;fillColor=none;top=0;left=0;bottom=0;right=0;fontStyle=1;overflow=hidden;" vertex="1" parent="U9Ilypw2iZtFGkeuuyww-2">
          <mxGeometry width="30" height="30" as="geometry" />
        </mxCell>
        <mxCell id="U9Ilypw2iZtFGkeuuyww-4" value="id" style="shape=partialRectangle;connectable=0;fillColor=none;top=0;left=0;bottom=0;right=0;align=left;spacingLeft=6;fontStyle=5;overflow=hidden;" vertex="1" parent="U9Ilypw2iZtFGkeuuyww-2">
          <mxGeometry x="30" width="150" height="30" as="geometry" />
        </mxCell>
        <mxCell id="U9Ilypw2iZtFGkeuuyww-5" value="" style="shape=partialRectangle;collapsible=0;dropTarget=0;pointerEvents=0;fillColor=none;top=0;left=0;bottom=0;right=0;points=[[0,0.5],[1,0.5]];portConstraint=eastwest;" vertex="1" parent="U9Ilypw2iZtFGkeuuyww-1">
          <mxGeometry y="60" width="180" height="30" as="geometry" />
        </mxCell>
        <mxCell id="U9Ilypw2iZtFGkeuuyww-6" value="" style="shape=partialRectangle;connectable=0;fillColor=none;top=0;left=0;bottom=0;right=0;editable=1;overflow=hidden;" vertex="1" parent="U9Ilypw2iZtFGkeuuyww-5">
          <mxGeometry width="30" height="30" as="geometry" />
        </mxCell>
        <mxCell id="U9Ilypw2iZtFGkeuuyww-7" value="氏名" style="shape=partialRectangle;connectable=0;fillColor=none;top=0;left=0;bottom=0;right=0;align=left;spacingLeft=6;overflow=hidden;" vertex="1" parent="U9Ilypw2iZtFGkeuuyww-5">
          <mxGeometry x="30" width="150" height="30" as="geometry" />
        </mxCell>
        <mxCell id="U9Ilypw2iZtFGkeuuyww-8" value="" style="shape=partialRectangle;collapsible=0;dropTarget=0;pointerEvents=0;fillColor=none;top=0;left=0;bottom=0;right=0;points=[[0,0.5],[1,0.5]];portConstraint=eastwest;" vertex="1" parent="U9Ilypw2iZtFGkeuuyww-1">
          <mxGeometry y="90" width="180" height="30" as="geometry" />
        </mxCell>
        <mxCell id="U9Ilypw2iZtFGkeuuyww-9" value="" style="shape=partialRectangle;connectable=0;fillColor=none;top=0;left=0;bottom=0;right=0;editable=1;overflow=hidden;" vertex="1" parent="U9Ilypw2iZtFGkeuuyww-8">
          <mxGeometry width="30" height="30" as="geometry" />
        </mxCell>
        <mxCell id="U9Ilypw2iZtFGkeuuyww-10" value="住所" style="shape=partialRectangle;connectable=0;fillColor=none;top=0;left=0;bottom=0;right=0;align=left;spacingLeft=6;overflow=hidden;" vertex="1" parent="U9Ilypw2iZtFGkeuuyww-8">
          <mxGeometry x="30" width="150" height="30" as="geometry" />
        </mxCell>
        <mxCell id="U9Ilypw2iZtFGkeuuyww-11" value="" style="shape=partialRectangle;collapsible=0;dropTarget=0;pointerEvents=0;fillColor=none;top=0;left=0;bottom=0;right=0;points=[[0,0.5],[1,0.5]];portConstraint=eastwest;" vertex="1" parent="U9Ilypw2iZtFGkeuuyww-1">
          <mxGeometry y="120" width="180" height="30" as="geometry" />
        </mxCell>
        <mxCell id="U9Ilypw2iZtFGkeuuyww-12" value="" style="shape=partialRectangle;connectable=0;fillColor=none;top=0;left=0;bottom=0;right=0;editable=1;overflow=hidden;" vertex="1" parent="U9Ilypw2iZtFGkeuuyww-11">
          <mxGeometry width="30" height="30" as="geometry" />
        </mxCell>
        <mxCell id="U9Ilypw2iZtFGkeuuyww-13" value="登録日" style="shape=partialRectangle;connectable=0;fillColor=none;top=0;left=0;bottom=0;right=0;align=left;spacingLeft=6;overflow=hidden;" vertex="1" parent="U9Ilypw2iZtFGkeuuyww-11">
          <mxGeometry x="30" width="150" height="30" as="geometry" />
        </mxCell>
        <mxCell id="U9Ilypw2iZtFGkeuuyww-79" value="" style="shape=partialRectangle;collapsible=0;dropTarget=0;pointerEvents=0;fillColor=none;top=0;left=0;bottom=0;right=0;points=[[0,0.5],[1,0.5]];portConstraint=eastwest;" vertex="1" parent="U9Ilypw2iZtFGkeuuyww-1">
          <mxGeometry y="150" width="180" height="30" as="geometry" />
        </mxCell>
        <mxCell id="U9Ilypw2iZtFGkeuuyww-80" value="" style="shape=partialRectangle;connectable=0;fillColor=none;top=0;left=0;bottom=0;right=0;editable=1;overflow=hidden;" vertex="1" parent="U9Ilypw2iZtFGkeuuyww-79">
          <mxGeometry width="30" height="30" as="geometry" />
        </mxCell>
        <mxCell id="U9Ilypw2iZtFGkeuuyww-81" value="更新日" style="shape=partialRectangle;connectable=0;fillColor=none;top=0;left=0;bottom=0;right=0;align=left;spacingLeft=6;overflow=hidden;" vertex="1" parent="U9Ilypw2iZtFGkeuuyww-79">
          <mxGeometry x="30" width="150" height="30" as="geometry" />
        </mxCell>
        <mxCell id="U9Ilypw2iZtFGkeuuyww-14" value="商品" style="shape=table;startSize=30;container=1;collapsible=1;childLayout=tableLayout;fixedRows=1;rowLines=0;fontStyle=1;align=center;resizeLast=1;" vertex="1" parent="1">
          <mxGeometry x="260" y="30" width="180" height="130" as="geometry" />
        </mxCell>
        <mxCell id="U9Ilypw2iZtFGkeuuyww-15" value="" style="shape=partialRectangle;collapsible=0;dropTarget=0;pointerEvents=0;fillColor=none;top=0;left=0;bottom=1;right=0;points=[[0,0.5],[1,0.5]];portConstraint=eastwest;" vertex="1" parent="U9Ilypw2iZtFGkeuuyww-14">
          <mxGeometry y="30" width="180" height="30" as="geometry" />
        </mxCell>
        <mxCell id="U9Ilypw2iZtFGkeuuyww-16" value="PK" style="shape=partialRectangle;connectable=0;fillColor=none;top=0;left=0;bottom=0;right=0;fontStyle=1;overflow=hidden;" vertex="1" parent="U9Ilypw2iZtFGkeuuyww-15">
          <mxGeometry width="30" height="30" as="geometry" />
        </mxCell>
        <mxCell id="U9Ilypw2iZtFGkeuuyww-17" value="id" style="shape=partialRectangle;connectable=0;fillColor=none;top=0;left=0;bottom=0;right=0;align=left;spacingLeft=6;fontStyle=5;overflow=hidden;" vertex="1" parent="U9Ilypw2iZtFGkeuuyww-15">
          <mxGeometry x="30" width="150" height="30" as="geometry" />
        </mxCell>
        <mxCell id="U9Ilypw2iZtFGkeuuyww-105" value="" style="shape=partialRectangle;collapsible=0;dropTarget=0;pointerEvents=0;fillColor=none;top=0;left=0;bottom=1;right=0;points=[[0,0.5],[1,0.5]];portConstraint=eastwest;" vertex="1" parent="U9Ilypw2iZtFGkeuuyww-14">
          <mxGeometry y="60" width="180" height="30" as="geometry" />
        </mxCell>
        <mxCell id="U9Ilypw2iZtFGkeuuyww-106" value="FK" style="shape=partialRectangle;connectable=0;fillColor=none;top=0;left=0;bottom=0;right=0;fontStyle=1;overflow=hidden;" vertex="1" parent="U9Ilypw2iZtFGkeuuyww-105">
          <mxGeometry width="30" height="30" as="geometry" />
        </mxCell>
        <mxCell id="U9Ilypw2iZtFGkeuuyww-107" value="ジャンルid" style="shape=partialRectangle;connectable=0;fillColor=none;top=0;left=0;bottom=0;right=0;align=left;spacingLeft=6;fontStyle=5;overflow=hidden;" vertex="1" parent="U9Ilypw2iZtFGkeuuyww-105">
          <mxGeometry x="30" width="150" height="30" as="geometry" />
        </mxCell>
        <mxCell id="U9Ilypw2iZtFGkeuuyww-18" value="" style="shape=partialRectangle;collapsible=0;dropTarget=0;pointerEvents=0;fillColor=none;top=0;left=0;bottom=0;right=0;points=[[0,0.5],[1,0.5]];portConstraint=eastwest;" vertex="1" parent="U9Ilypw2iZtFGkeuuyww-14">
          <mxGeometry y="90" width="180" height="30" as="geometry" />
        </mxCell>
        <mxCell id="U9Ilypw2iZtFGkeuuyww-19" value="" style="shape=partialRectangle;connectable=0;fillColor=none;top=0;left=0;bottom=0;right=0;editable=1;overflow=hidden;" vertex="1" parent="U9Ilypw2iZtFGkeuuyww-18">
          <mxGeometry width="30" height="30" as="geometry" />
        </mxCell>
        <mxCell id="U9Ilypw2iZtFGkeuuyww-20" value="商品名" style="shape=partialRectangle;connectable=0;fillColor=none;top=0;left=0;bottom=0;right=0;align=left;spacingLeft=6;overflow=hidden;" vertex="1" parent="U9Ilypw2iZtFGkeuuyww-18">
          <mxGeometry x="30" width="150" height="30" as="geometry" />
        </mxCell>
        <mxCell id="U9Ilypw2iZtFGkeuuyww-108" value="" style="edgeStyle=orthogonalEdgeStyle;rounded=0;orthogonalLoop=1;jettySize=auto;html=1;" edge="1" parent="1" source="U9Ilypw2iZtFGkeuuyww-27" target="U9Ilypw2iZtFGkeuuyww-105">
          <mxGeometry relative="1" as="geometry" />
        </mxCell>
        <mxCell id="U9Ilypw2iZtFGkeuuyww-27" value="ジャンル" style="shape=table;startSize=30;container=1;collapsible=1;childLayout=tableLayout;fixedRows=1;rowLines=0;fontStyle=1;align=center;resizeLast=1;" vertex="1" parent="1">
          <mxGeometry x="510" y="25" width="180" height="100" as="geometry" />
        </mxCell>
        <mxCell id="U9Ilypw2iZtFGkeuuyww-28" value="" style="shape=partialRectangle;collapsible=0;dropTarget=0;pointerEvents=0;fillColor=none;top=0;left=0;bottom=1;right=0;points=[[0,0.5],[1,0.5]];portConstraint=eastwest;" vertex="1" parent="U9Ilypw2iZtFGkeuuyww-27">
          <mxGeometry y="30" width="180" height="30" as="geometry" />
        </mxCell>
        <mxCell id="U9Ilypw2iZtFGkeuuyww-29" value="PK" style="shape=partialRectangle;connectable=0;fillColor=none;top=0;left=0;bottom=0;right=0;fontStyle=1;overflow=hidden;" vertex="1" parent="U9Ilypw2iZtFGkeuuyww-28">
          <mxGeometry width="30" height="30" as="geometry" />
        </mxCell>
        <mxCell id="U9Ilypw2iZtFGkeuuyww-30" value="id" style="shape=partialRectangle;connectable=0;fillColor=none;top=0;left=0;bottom=0;right=0;align=left;spacingLeft=6;fontStyle=5;overflow=hidden;" vertex="1" parent="U9Ilypw2iZtFGkeuuyww-28">
          <mxGeometry x="30" width="150" height="30" as="geometry" />
        </mxCell>
        <mxCell id="U9Ilypw2iZtFGkeuuyww-31" value="" style="shape=partialRectangle;collapsible=0;dropTarget=0;pointerEvents=0;fillColor=none;top=0;left=0;bottom=0;right=0;points=[[0,0.5],[1,0.5]];portConstraint=eastwest;" vertex="1" parent="U9Ilypw2iZtFGkeuuyww-27">
          <mxGeometry y="60" width="180" height="30" as="geometry" />
        </mxCell>
        <mxCell id="U9Ilypw2iZtFGkeuuyww-32" value="" style="shape=partialRectangle;connectable=0;fillColor=none;top=0;left=0;bottom=0;right=0;editable=1;overflow=hidden;" vertex="1" parent="U9Ilypw2iZtFGkeuuyww-31">
          <mxGeometry width="30" height="30" as="geometry" />
        </mxCell>
        <mxCell id="U9Ilypw2iZtFGkeuuyww-33" value="ジャンル名" style="shape=partialRectangle;connectable=0;fillColor=none;top=0;left=0;bottom=0;right=0;align=left;spacingLeft=6;overflow=hidden;" vertex="1" parent="U9Ilypw2iZtFGkeuuyww-31">
          <mxGeometry x="30" width="150" height="30" as="geometry" />
        </mxCell>
        <mxCell id="U9Ilypw2iZtFGkeuuyww-40" value="注文" style="shape=table;startSize=30;container=1;collapsible=1;childLayout=tableLayout;fixedRows=1;rowLines=0;fontStyle=1;align=center;resizeLast=1;" vertex="1" parent="1">
          <mxGeometry x="20" y="235" width="180" height="190" as="geometry" />
        </mxCell>
        <mxCell id="U9Ilypw2iZtFGkeuuyww-41" value="" style="shape=partialRectangle;collapsible=0;dropTarget=0;pointerEvents=0;fillColor=none;top=0;left=0;bottom=1;right=0;points=[[0,0.5],[1,0.5]];portConstraint=eastwest;" vertex="1" parent="U9Ilypw2iZtFGkeuuyww-40">
          <mxGeometry y="30" width="180" height="30" as="geometry" />
        </mxCell>
        <mxCell id="U9Ilypw2iZtFGkeuuyww-42" value="PK" style="shape=partialRectangle;connectable=0;fillColor=none;top=0;left=0;bottom=0;right=0;fontStyle=1;overflow=hidden;" vertex="1" parent="U9Ilypw2iZtFGkeuuyww-41">
          <mxGeometry width="30" height="30" as="geometry" />
        </mxCell>
        <mxCell id="U9Ilypw2iZtFGkeuuyww-43" value="id" style="shape=partialRectangle;connectable=0;fillColor=none;top=0;left=0;bottom=0;right=0;align=left;spacingLeft=6;fontStyle=5;overflow=hidden;" vertex="1" parent="U9Ilypw2iZtFGkeuuyww-41">
          <mxGeometry x="30" width="150" height="30" as="geometry" />
        </mxCell>
        <mxCell id="U9Ilypw2iZtFGkeuuyww-102" value="" style="shape=partialRectangle;collapsible=0;dropTarget=0;pointerEvents=0;fillColor=none;top=0;left=0;bottom=1;right=0;points=[[0,0.5],[1,0.5]];portConstraint=eastwest;" vertex="1" parent="U9Ilypw2iZtFGkeuuyww-40">
          <mxGeometry y="60" width="180" height="30" as="geometry" />
        </mxCell>
        <mxCell id="U9Ilypw2iZtFGkeuuyww-103" value="FK" style="shape=partialRectangle;connectable=0;fillColor=none;top=0;left=0;bottom=0;right=0;fontStyle=1;overflow=hidden;" vertex="1" parent="U9Ilypw2iZtFGkeuuyww-102">
          <mxGeometry width="30" height="30" as="geometry" />
        </mxCell>
        <mxCell id="U9Ilypw2iZtFGkeuuyww-104" value="会員id" style="shape=partialRectangle;connectable=0;fillColor=none;top=0;left=0;bottom=0;right=0;align=left;spacingLeft=6;fontStyle=5;overflow=hidden;" vertex="1" parent="U9Ilypw2iZtFGkeuuyww-102">
          <mxGeometry x="30" width="150" height="30" as="geometry" />
        </mxCell>
        <mxCell id="U9Ilypw2iZtFGkeuuyww-47" value="" style="shape=partialRectangle;collapsible=0;dropTarget=0;pointerEvents=0;fillColor=none;top=0;left=0;bottom=0;right=0;points=[[0,0.5],[1,0.5]];portConstraint=eastwest;" vertex="1" parent="U9Ilypw2iZtFGkeuuyww-40">
          <mxGeometry y="90" width="180" height="30" as="geometry" />
        </mxCell>
        <mxCell id="U9Ilypw2iZtFGkeuuyww-48" value="" style="shape=partialRectangle;connectable=0;fillColor=none;top=0;left=0;bottom=0;right=0;editable=1;overflow=hidden;" vertex="1" parent="U9Ilypw2iZtFGkeuuyww-47">
          <mxGeometry width="30" height="30" as="geometry" />
        </mxCell>
        <mxCell id="U9Ilypw2iZtFGkeuuyww-49" value="送料" style="shape=partialRectangle;connectable=0;fillColor=none;top=0;left=0;bottom=0;right=0;align=left;spacingLeft=6;overflow=hidden;" vertex="1" parent="U9Ilypw2iZtFGkeuuyww-47">
          <mxGeometry x="30" width="150" height="30" as="geometry" />
        </mxCell>
        <mxCell id="U9Ilypw2iZtFGkeuuyww-50" value="" style="shape=partialRectangle;collapsible=0;dropTarget=0;pointerEvents=0;fillColor=none;top=0;left=0;bottom=0;right=0;points=[[0,0.5],[1,0.5]];portConstraint=eastwest;" vertex="1" parent="U9Ilypw2iZtFGkeuuyww-40">
          <mxGeometry y="120" width="180" height="30" as="geometry" />
        </mxCell>
        <mxCell id="U9Ilypw2iZtFGkeuuyww-51" value="" style="shape=partialRectangle;connectable=0;fillColor=none;top=0;left=0;bottom=0;right=0;editable=1;overflow=hidden;" vertex="1" parent="U9Ilypw2iZtFGkeuuyww-50">
          <mxGeometry width="30" height="30" as="geometry" />
        </mxCell>
        <mxCell id="U9Ilypw2iZtFGkeuuyww-52" value="登録日" style="shape=partialRectangle;connectable=0;fillColor=none;top=0;left=0;bottom=0;right=0;align=left;spacingLeft=6;overflow=hidden;" vertex="1" parent="U9Ilypw2iZtFGkeuuyww-50">
          <mxGeometry x="30" width="150" height="30" as="geometry" />
        </mxCell>
        <mxCell id="U9Ilypw2iZtFGkeuuyww-82" value="" style="shape=partialRectangle;collapsible=0;dropTarget=0;pointerEvents=0;fillColor=none;top=0;left=0;bottom=0;right=0;points=[[0,0.5],[1,0.5]];portConstraint=eastwest;" vertex="1" parent="U9Ilypw2iZtFGkeuuyww-40">
          <mxGeometry y="150" width="180" height="30" as="geometry" />
        </mxCell>
        <mxCell id="U9Ilypw2iZtFGkeuuyww-83" value="" style="shape=partialRectangle;connectable=0;fillColor=none;top=0;left=0;bottom=0;right=0;editable=1;overflow=hidden;" vertex="1" parent="U9Ilypw2iZtFGkeuuyww-82">
          <mxGeometry width="30" height="30" as="geometry" />
        </mxCell>
        <mxCell id="U9Ilypw2iZtFGkeuuyww-84" value="更新日" style="shape=partialRectangle;connectable=0;fillColor=none;top=0;left=0;bottom=0;right=0;align=left;spacingLeft=6;overflow=hidden;" vertex="1" parent="U9Ilypw2iZtFGkeuuyww-82">
          <mxGeometry x="30" width="150" height="30" as="geometry" />
        </mxCell>
        <mxCell id="U9Ilypw2iZtFGkeuuyww-53" value="配送先" style="shape=table;startSize=30;container=1;collapsible=1;childLayout=tableLayout;fixedRows=1;rowLines=0;fontStyle=1;align=center;resizeLast=1;" vertex="1" parent="1">
          <mxGeometry x="540" y="235" width="180" height="160" as="geometry" />
        </mxCell>
        <mxCell id="U9Ilypw2iZtFGkeuuyww-54" value="" style="shape=partialRectangle;collapsible=0;dropTarget=0;pointerEvents=0;fillColor=none;top=0;left=0;bottom=1;right=0;points=[[0,0.5],[1,0.5]];portConstraint=eastwest;" vertex="1" parent="U9Ilypw2iZtFGkeuuyww-53">
          <mxGeometry y="30" width="180" height="30" as="geometry" />
        </mxCell>
        <mxCell id="U9Ilypw2iZtFGkeuuyww-55" value="PK" style="shape=partialRectangle;connectable=0;fillColor=none;top=0;left=0;bottom=0;right=0;fontStyle=1;overflow=hidden;" vertex="1" parent="U9Ilypw2iZtFGkeuuyww-54">
          <mxGeometry width="30" height="30" as="geometry" />
        </mxCell>
        <mxCell id="U9Ilypw2iZtFGkeuuyww-56" value="UniqueID" style="shape=partialRectangle;connectable=0;fillColor=none;top=0;left=0;bottom=0;right=0;align=left;spacingLeft=6;fontStyle=5;overflow=hidden;" vertex="1" parent="U9Ilypw2iZtFGkeuuyww-54">
          <mxGeometry x="30" width="150" height="30" as="geometry" />
        </mxCell>
        <mxCell id="U9Ilypw2iZtFGkeuuyww-57" value="" style="shape=partialRectangle;collapsible=0;dropTarget=0;pointerEvents=0;fillColor=none;top=0;left=0;bottom=0;right=0;points=[[0,0.5],[1,0.5]];portConstraint=eastwest;" vertex="1" parent="U9Ilypw2iZtFGkeuuyww-53">
          <mxGeometry y="60" width="180" height="30" as="geometry" />
        </mxCell>
        <mxCell id="U9Ilypw2iZtFGkeuuyww-58" value="" style="shape=partialRectangle;connectable=0;fillColor=none;top=0;left=0;bottom=0;right=0;editable=1;overflow=hidden;" vertex="1" parent="U9Ilypw2iZtFGkeuuyww-57">
          <mxGeometry width="30" height="30" as="geometry" />
        </mxCell>
        <mxCell id="U9Ilypw2iZtFGkeuuyww-59" value="Row 1" style="shape=partialRectangle;connectable=0;fillColor=none;top=0;left=0;bottom=0;right=0;align=left;spacingLeft=6;overflow=hidden;" vertex="1" parent="U9Ilypw2iZtFGkeuuyww-57">
          <mxGeometry x="30" width="150" height="30" as="geometry" />
        </mxCell>
        <mxCell id="U9Ilypw2iZtFGkeuuyww-60" value="" style="shape=partialRectangle;collapsible=0;dropTarget=0;pointerEvents=0;fillColor=none;top=0;left=0;bottom=0;right=0;points=[[0,0.5],[1,0.5]];portConstraint=eastwest;" vertex="1" parent="U9Ilypw2iZtFGkeuuyww-53">
          <mxGeometry y="90" width="180" height="30" as="geometry" />
        </mxCell>
        <mxCell id="U9Ilypw2iZtFGkeuuyww-61" value="" style="shape=partialRectangle;connectable=0;fillColor=none;top=0;left=0;bottom=0;right=0;editable=1;overflow=hidden;" vertex="1" parent="U9Ilypw2iZtFGkeuuyww-60">
          <mxGeometry width="30" height="30" as="geometry" />
        </mxCell>
        <mxCell id="U9Ilypw2iZtFGkeuuyww-62" value="Row 2" style="shape=partialRectangle;connectable=0;fillColor=none;top=0;left=0;bottom=0;right=0;align=left;spacingLeft=6;overflow=hidden;" vertex="1" parent="U9Ilypw2iZtFGkeuuyww-60">
          <mxGeometry x="30" width="150" height="30" as="geometry" />
        </mxCell>
        <mxCell id="U9Ilypw2iZtFGkeuuyww-63" value="" style="shape=partialRectangle;collapsible=0;dropTarget=0;pointerEvents=0;fillColor=none;top=0;left=0;bottom=0;right=0;points=[[0,0.5],[1,0.5]];portConstraint=eastwest;" vertex="1" parent="U9Ilypw2iZtFGkeuuyww-53">
          <mxGeometry y="120" width="180" height="30" as="geometry" />
        </mxCell>
        <mxCell id="U9Ilypw2iZtFGkeuuyww-64" value="" style="shape=partialRectangle;connectable=0;fillColor=none;top=0;left=0;bottom=0;right=0;editable=1;overflow=hidden;" vertex="1" parent="U9Ilypw2iZtFGkeuuyww-63">
          <mxGeometry width="30" height="30" as="geometry" />
        </mxCell>
        <mxCell id="U9Ilypw2iZtFGkeuuyww-65" value="Row 3" style="shape=partialRectangle;connectable=0;fillColor=none;top=0;left=0;bottom=0;right=0;align=left;spacingLeft=6;overflow=hidden;" vertex="1" parent="U9Ilypw2iZtFGkeuuyww-63">
          <mxGeometry x="30" width="150" height="30" as="geometry" />
        </mxCell>
        <mxCell id="U9Ilypw2iZtFGkeuuyww-66" value="注文商品" style="shape=table;startSize=30;container=1;collapsible=1;childLayout=tableLayout;fixedRows=1;rowLines=0;fontStyle=1;align=center;resizeLast=1;" vertex="1" parent="1">
          <mxGeometry x="270" y="235" width="180" height="220" as="geometry" />
        </mxCell>
        <mxCell id="U9Ilypw2iZtFGkeuuyww-67" value="" style="shape=partialRectangle;collapsible=0;dropTarget=0;pointerEvents=0;fillColor=none;top=0;left=0;bottom=1;right=0;points=[[0,0.5],[1,0.5]];portConstraint=eastwest;" vertex="1" parent="U9Ilypw2iZtFGkeuuyww-66">
          <mxGeometry y="30" width="180" height="30" as="geometry" />
        </mxCell>
        <mxCell id="U9Ilypw2iZtFGkeuuyww-68" value="PK" style="shape=partialRectangle;connectable=0;fillColor=none;top=0;left=0;bottom=0;right=0;fontStyle=1;overflow=hidden;" vertex="1" parent="U9Ilypw2iZtFGkeuuyww-67">
          <mxGeometry width="30" height="30" as="geometry" />
        </mxCell>
        <mxCell id="U9Ilypw2iZtFGkeuuyww-69" value="id" style="shape=partialRectangle;connectable=0;fillColor=none;top=0;left=0;bottom=0;right=0;align=left;spacingLeft=6;fontStyle=5;overflow=hidden;" vertex="1" parent="U9Ilypw2iZtFGkeuuyww-67">
          <mxGeometry x="30" width="150" height="30" as="geometry" />
        </mxCell>
        <mxCell id="U9Ilypw2iZtFGkeuuyww-88" value="" style="shape=partialRectangle;collapsible=0;dropTarget=0;pointerEvents=0;fillColor=none;top=0;left=0;bottom=1;right=0;points=[[0,0.5],[1,0.5]];portConstraint=eastwest;" vertex="1" parent="U9Ilypw2iZtFGkeuuyww-66">
          <mxGeometry y="60" width="180" height="30" as="geometry" />
        </mxCell>
        <mxCell id="U9Ilypw2iZtFGkeuuyww-89" value="FK" style="shape=partialRectangle;connectable=0;fillColor=none;top=0;left=0;bottom=0;right=0;fontStyle=1;overflow=hidden;" vertex="1" parent="U9Ilypw2iZtFGkeuuyww-88">
          <mxGeometry width="30" height="30" as="geometry" />
        </mxCell>
        <mxCell id="U9Ilypw2iZtFGkeuuyww-90" value="注文id" style="shape=partialRectangle;connectable=0;fillColor=none;top=0;left=0;bottom=0;right=0;align=left;spacingLeft=6;fontStyle=5;overflow=hidden;" vertex="1" parent="U9Ilypw2iZtFGkeuuyww-88">
          <mxGeometry x="30" width="150" height="30" as="geometry" />
        </mxCell>
        <mxCell id="U9Ilypw2iZtFGkeuuyww-70" value="" style="shape=partialRectangle;collapsible=0;dropTarget=0;pointerEvents=0;fillColor=none;top=0;left=0;bottom=0;right=0;points=[[0,0.5],[1,0.5]];portConstraint=eastwest;" vertex="1" parent="U9Ilypw2iZtFGkeuuyww-66">
          <mxGeometry y="90" width="180" height="30" as="geometry" />
        </mxCell>
        <mxCell id="U9Ilypw2iZtFGkeuuyww-71" value="" style="shape=partialRectangle;connectable=0;fillColor=none;top=0;left=0;bottom=0;right=0;editable=1;overflow=hidden;" vertex="1" parent="U9Ilypw2iZtFGkeuuyww-70">
          <mxGeometry width="30" height="30" as="geometry" />
        </mxCell>
        <mxCell id="U9Ilypw2iZtFGkeuuyww-72" value="商品" style="shape=partialRectangle;connectable=0;fillColor=none;top=0;left=0;bottom=0;right=0;align=left;spacingLeft=6;overflow=hidden;" vertex="1" parent="U9Ilypw2iZtFGkeuuyww-70">
          <mxGeometry x="30" width="150" height="30" as="geometry" />
        </mxCell>
        <mxCell id="U9Ilypw2iZtFGkeuuyww-73" value="" style="shape=partialRectangle;collapsible=0;dropTarget=0;pointerEvents=0;fillColor=none;top=0;left=0;bottom=0;right=0;points=[[0,0.5],[1,0.5]];portConstraint=eastwest;" vertex="1" parent="U9Ilypw2iZtFGkeuuyww-66">
          <mxGeometry y="120" width="180" height="30" as="geometry" />
        </mxCell>
        <mxCell id="U9Ilypw2iZtFGkeuuyww-74" value="" style="shape=partialRectangle;connectable=0;fillColor=none;top=0;left=0;bottom=0;right=0;editable=1;overflow=hidden;" vertex="1" parent="U9Ilypw2iZtFGkeuuyww-73">
          <mxGeometry width="30" height="30" as="geometry" />
        </mxCell>
        <mxCell id="U9Ilypw2iZtFGkeuuyww-75" value="個数" style="shape=partialRectangle;connectable=0;fillColor=none;top=0;left=0;bottom=0;right=0;align=left;spacingLeft=6;overflow=hidden;" vertex="1" parent="U9Ilypw2iZtFGkeuuyww-73">
          <mxGeometry x="30" width="150" height="30" as="geometry" />
        </mxCell>
        <mxCell id="U9Ilypw2iZtFGkeuuyww-76" value="" style="shape=partialRectangle;collapsible=0;dropTarget=0;pointerEvents=0;fillColor=none;top=0;left=0;bottom=0;right=0;points=[[0,0.5],[1,0.5]];portConstraint=eastwest;" vertex="1" parent="U9Ilypw2iZtFGkeuuyww-66">
          <mxGeometry y="150" width="180" height="30" as="geometry" />
        </mxCell>
        <mxCell id="U9Ilypw2iZtFGkeuuyww-77" value="" style="shape=partialRectangle;connectable=0;fillColor=none;top=0;left=0;bottom=0;right=0;editable=1;overflow=hidden;" vertex="1" parent="U9Ilypw2iZtFGkeuuyww-76">
          <mxGeometry width="30" height="30" as="geometry" />
        </mxCell>
        <mxCell id="U9Ilypw2iZtFGkeuuyww-78" value="登録日" style="shape=partialRectangle;connectable=0;fillColor=none;top=0;left=0;bottom=0;right=0;align=left;spacingLeft=6;overflow=hidden;" vertex="1" parent="U9Ilypw2iZtFGkeuuyww-76">
          <mxGeometry x="30" width="150" height="30" as="geometry" />
        </mxCell>
        <mxCell id="U9Ilypw2iZtFGkeuuyww-85" value="" style="shape=partialRectangle;collapsible=0;dropTarget=0;pointerEvents=0;fillColor=none;top=0;left=0;bottom=0;right=0;points=[[0,0.5],[1,0.5]];portConstraint=eastwest;" vertex="1" parent="U9Ilypw2iZtFGkeuuyww-66">
          <mxGeometry y="180" width="180" height="30" as="geometry" />
        </mxCell>
        <mxCell id="U9Ilypw2iZtFGkeuuyww-86" value="" style="shape=partialRectangle;connectable=0;fillColor=none;top=0;left=0;bottom=0;right=0;editable=1;overflow=hidden;" vertex="1" parent="U9Ilypw2iZtFGkeuuyww-85">
          <mxGeometry width="30" height="30" as="geometry" />
        </mxCell>
        <mxCell id="U9Ilypw2iZtFGkeuuyww-87" value="更新日" style="shape=partialRectangle;connectable=0;fillColor=none;top=0;left=0;bottom=0;right=0;align=left;spacingLeft=6;overflow=hidden;" vertex="1" parent="U9Ilypw2iZtFGkeuuyww-85">
          <mxGeometry x="30" width="150" height="30" as="geometry" />
        </mxCell>
        <mxCell id="U9Ilypw2iZtFGkeuuyww-109" value="" style="edgeStyle=orthogonalEdgeStyle;rounded=0;orthogonalLoop=1;jettySize=auto;html=1;entryX=1;entryY=0.5;entryDx=0;entryDy=0;" edge="1" parent="1" source="U9Ilypw2iZtFGkeuuyww-102" target="U9Ilypw2iZtFGkeuuyww-2">
          <mxGeometry relative="1" as="geometry" />
        </mxCell>
        <mxCell id="U9Ilypw2iZtFGkeuuyww-113" value="" style="edgeStyle=orthogonalEdgeStyle;rounded=0;orthogonalLoop=1;jettySize=auto;html=1;" edge="1" parent="1" source="U9Ilypw2iZtFGkeuuyww-41" target="U9Ilypw2iZtFGkeuuyww-88">
          <mxGeometry relative="1" as="geometry" />
        </mxCell>
      </root>
    </mxGraphModel>
  </diagram>
</mxfile>
